<?xml version="1.0" encoding="UTF-8" standalone="no" ?>
<!DOCTYPE svg PUBLIC "-//W3C//DTD SVG 1.1//EN" "http://www.w3.org/Graphics/SVG/1.1/DTD/svg11.dtd">
<svg xmlns="http://www.w3.org/2000/svg" xmlns:xlink="http://www.w3.org/1999/xlink" version="1.1" width="443.703125" height="134.8919" xml:space="preserve">
<desc>Created with Fabric.js 1.6.0-rc.1</desc>
<defs></defs>
<g style="stroke: none; stroke-width: 1; stroke-dasharray: none; stroke-linecap: butt; stroke-linejoin: miter; stroke-miterlimit: 10; fill: none; fill-rule: nonzero; opacity: 1;" transform="translate(10 9.999999999999993) scale(0.23 0.23)" >
  <path d="M 98.326 78.282 L 34.908 88.465 c -17.693 2.841 -29.732 19.486 -26.89 37.179 l 11.278 70.227 l 481.116 -77.262 l -11.279 -70.226 c -2.841 -17.693 -19.486 -29.732 -37.179 -26.89 L 168.646 66.989 L 98.326 78.282 z" style="stroke: none; stroke-width: 1; stroke-dasharray: none; stroke-linecap: butt; stroke-linejoin: miter; stroke-miterlimit: 10; fill: #57545C; fill-rule: nonzero; opacity: 1;" transform=" matrix(1 0 0 1 0 0) " stroke-linecap="round" />
  <path d="M 9.469 134.678 l 9.827 61.193 l 481.116 -77.262 l -9.803 -61.047 C 426.885 67.698 71.63 124.227 9.469 134.678 z" style="stroke: none; stroke-width: 1; stroke-dasharray: none; stroke-linecap: butt; stroke-linejoin: miter; stroke-miterlimit: 10; fill: #FFCD00; fill-rule: nonzero; opacity: 1;" transform=" matrix(1 0 0 1 0 0) " stroke-linecap="round" />
  <rect x="17.11" y="195.88" rx="0" ry="0" width="487.28" height="295.05" style="stroke: none; stroke-width: 1; stroke-dasharray: none; stroke-linecap: butt; stroke-linejoin: miter; stroke-miterlimit: 10; fill: #3E3B43; fill-rule: nonzero; opacity: 1;" transform=" matrix(1 0 0 1 0 0) "/>
  <polygon points="455.51,195.87 455.51,442.04 17.11,442.04 17.11,490.93 504.39,490.93 504.39,195.87 " style="stroke: none; stroke-width: 1; stroke-dasharray: none; stroke-linecap: butt; stroke-linejoin: miter; stroke-miterlimit: 10; fill: #2F2D30; fill-rule: nonzero; opacity: 1;" transform="  matrix(1 0 0 1 0 0) "/>
  <rect x="17.11" y="195.88" rx="0" ry="0" width="487.28" height="51.79" style="stroke: none; stroke-width: 1; stroke-dasharray: none; stroke-linecap: butt; stroke-linejoin: miter; stroke-miterlimit: 10; fill: #FFCD00; fill-rule: nonzero; opacity: 1;" transform=" matrix(1 0 0 1 0 0) "/>
  <polygon points="152.68,247.66 203.67,195.87 106.84,195.87 55.85,247.66 " style="stroke: none; stroke-width: 1; stroke-dasharray: none; stroke-linecap: butt; stroke-linejoin: miter; stroke-miterlimit: 10; fill: #CCA400; fill-rule: nonzero; opacity: 1;" transform="  matrix(1 0 0 1 0 0) "/>
  <polygon points="324.22,247.66 375.21,195.87 278.38,195.87 227.39,247.66 " style="stroke: none; stroke-width: 1; stroke-dasharray: none; stroke-linecap: butt; stroke-linejoin: miter; stroke-miterlimit: 10; fill: #CCA400; fill-rule: nonzero; opacity: 1;" transform="  matrix(1 0 0 1 0 0) "/>
  <polygon points="411.39,247.66 462.38,195.87 504.39,195.87 504.39,247.66 " style="stroke: none; stroke-width: 1; stroke-dasharray: none; stroke-linecap: butt; stroke-linejoin: miter; stroke-miterlimit: 10; fill: #CCA400; fill-rule: nonzero; opacity: 1;" transform="  matrix(1 0 0 1 0 0) "/>
  <polygon points="57.54,189.73 99.59,120.02 9.47,134.68 19.3,195.87 " style="stroke: none; stroke-width: 1; stroke-dasharray: none; stroke-linecap: butt; stroke-linejoin: miter; stroke-miterlimit: 10; fill: #CCA400; fill-rule: nonzero; opacity: 1;" transform="  matrix(1 0 0 1 0 0) "/>
  <polygon points="238.96,160.29 280.76,91 195.19,104.68 153.15,174.38 " style="stroke: none; stroke-width: 1; stroke-dasharray: none; stroke-linecap: butt; stroke-linejoin: miter; stroke-miterlimit: 10; fill: #CCA400; fill-rule: nonzero; opacity: 1;" transform="  matrix(1 0 0 1 0 0) "/>
  <polygon points="416.42,132.1 458.27,62.71 366.96,77.25 325.03,146.77 " style="stroke: none; stroke-width: 1; stroke-dasharray: none; stroke-linecap: butt; stroke-linejoin: miter; stroke-miterlimit: 10; fill: #CCA400; fill-rule: nonzero; opacity: 1;" transform="  matrix(1 0 0 1 0 0) "/>
  <path d="M 504.395 188.267 h -42.064 c -0.004 0 -0.009 0 -0.013 0 h -84.612 c -0.004 0 -0.009 0 -0.013 0 h -87.361 c -0.004 0 -0.009 0 -0.013 0 h -86.694 c -0.004 0 -0.009 0 -0.013 0 h -89.003 l 387.009 -62.149 c 1.991 -0.319 3.774 -1.417 4.956 -3.052 s 1.667 -3.671 1.346 -5.663 l -11.278 -70.227 c -1.696 -10.562 -7.403 -19.832 -16.072 -26.101 c -8.667 -6.27 -19.258 -8.785 -29.821 -7.092 L 167.44 59.481 c -4.147 0.666 -6.967 4.568 -6.302 8.713 c 0.665 4.146 4.551 6.966 8.714 6.302 l 283.308 -45.496 c 6.555 -1.051 13.12 0.511 18.497 4.398 c 5.376 3.888 8.916 9.638 9.968 16.189 l 0.51 3.179 c -20.781 3.303 -128.545 20.436 -235.056 37.45 c -69.277 11.067 -124.471 19.918 -164.05 26.307 c -23.505 3.795 -41.695 6.753 -54.063 8.79 c -5.278 0.87 -9.625 1.594 -12.953 2.158 l -0.487 -3.034 c -2.172 -13.523 7.065 -26.293 20.588 -28.465 l 63.418 -10.185 c 4.147 -0.666 6.968 -4.568 6.302 -8.714 c -0.665 -4.146 -4.55 -6.966 -8.714 -6.302 L 33.702 80.958 C 11.899 84.46 -2.991 105.046 0.51 126.85 l 1.715 10.675 c 0.001 0.004 0.001 0.008 0.002 0.012 c 0 0.002 0.001 0.004 0.001 0.007 l 8.666 53.965 c -0.868 1.236 -1.382 2.739 -1.382 4.363 v 295.054 c 0 4.2 3.404 7.604 7.604 7.604 h 487.28 c 4.201 0 7.604 -3.405 7.604 -7.604 V 195.872 C 511.999 191.671 508.595 188.267 504.395 188.267 z M 496.791 240.053 H 429.55 l 36.016 -36.577 h 31.225 V 240.053 z M 344.925 240.053 l 36.016 -36.577 h 63.281 l -36.016 36.577 H 344.925 z M 257.55 240.053 l 36.016 -36.577 h 66.031 l -36.016 36.577 H 257.55 z M 170.842 240.053 l 36.016 -36.577 h 65.365 l -36.016 36.577 H 170.842 z M 74.01 240.053 l 36.016 -36.577 h 75.489 l -36.016 36.577 H 74.01 z M 24.719 240.053 v -36.577 h 63.964 l -36.016 36.577 H 24.719 z M 179.192 116.475 l -30.732 50.952 l -75.943 12.195 l 30.734 -50.955 C 125.916 125.018 151.668 120.884 179.192 116.475 z M 350.972 89.04 l -30.631 50.785 l -66.605 10.696 l 30.682 -50.867 C 306.674 96.102 329.037 92.536 350.972 89.04 z M 442.28 74.503 l -30.548 50.645 l -71.726 11.518 l 30.615 -50.757 C 395.57 81.936 419.732 78.09 442.28 74.503 z M 491.696 112.307 l -60.3 9.684 l 30.527 -50.612 c 7.797 -1.24 15.353 -2.44 22.623 -3.596 L 491.696 112.307 z M 264.765 102.792 l -30.694 50.888 l -65.948 10.59 l 30.726 -50.941 C 220.174 109.916 242.332 106.374 264.765 102.792 z M 83.579 131.839 L 52.853 182.78 l -27.255 4.377 l -7.174 -44.674 C 29.377 140.627 52.565 136.847 83.579 131.839 z M 24.719 483.321 V 255.262 h 472.072 v 228.06 H 24.719 V 483.321 z" style="stroke: none; stroke-width: 1; stroke-dasharray: none; stroke-linecap: butt; stroke-linejoin: miter; stroke-miterlimit: 10; fill: rgb(0,0,0); fill-rule: nonzero; opacity: 1;" transform=" matrix(1 0 0 1 0 0) " stroke-linecap="round" />
  <path d="M 449.421 325.3 H 193.934 c -4.201 0 -7.604 3.405 -7.604 7.604 c 0 4.2 3.404 7.604 7.604 7.604 h 255.487 c 4.201 0 7.604 -3.405 7.604 -7.604 C 457.026 328.704 453.622 325.3 449.421 325.3 z" style="stroke: none; stroke-width: 1; stroke-dasharray: none; stroke-linecap: butt; stroke-linejoin: miter; stroke-miterlimit: 10; fill: rgb(0,0,0); fill-rule: nonzero; opacity: 1;" transform=" matrix(1 0 0 1 0 0) " stroke-linecap="round" />
  <path d="M 63.022 340.508 h 61.864 c 4.201 0 7.604 -3.405 7.604 -7.604 c 0 -4.2 -3.404 -7.604 -7.604 -7.604 H 63.022 c -4.201 0 -7.604 3.405 -7.604 7.604 C 55.418 337.104 58.821 340.508 63.022 340.508 z" style="stroke: none; stroke-width: 1; stroke-dasharray: none; stroke-linecap: butt; stroke-linejoin: miter; stroke-miterlimit: 10; fill: rgb(0,0,0); fill-rule: nonzero; opacity: 1;" transform=" matrix(1 0 0 1 0 0) " stroke-linecap="round" />
  <path d="M 449.421 385.848 H 63.022 c -4.201 0 -7.604 3.405 -7.604 7.604 c 0 4.2 3.404 7.604 7.604 7.604 H 253.15 v 46.573 c 0 4.2 3.404 7.604 7.604 7.604 c 4.201 0 7.604 -3.405 7.604 -7.604 v -46.573 h 181.063 c 4.201 0 7.604 -3.405 7.604 -7.604 C 457.026 389.252 453.622 385.848 449.421 385.848 z" style="stroke: none; stroke-width: 1; stroke-dasharray: none; stroke-linecap: butt; stroke-linejoin: miter; stroke-miterlimit: 10; fill: rgb(0,0,0); fill-rule: nonzero; opacity: 1;" transform=" matrix(1 0 0 1 0 0) " stroke-linecap="round" />
</g>
  <g transform="translate(293.85 85.54)">
   <text font-family="ADAMCG PRO" font-size="40" font-weight="normal" style="stroke: none; stroke-width: 1; stroke-dasharray: none; stroke-linecap: butt; stroke-linejoin: miter; stroke-miterlimit: 10; fill: #000000; fill-rule: nonzero; opacity: 1;" ><tspan x="-140.35" y="8.98" style="stroke: none; stroke-width: 0; stroke-dasharray: none; stroke-linecap: butt; stroke-linejoin: miter; stroke-miterlimit: 4; fill: #000000; fill-rule: ; opacity: 1;">P</tspan><tspan x="-117.93" y="8.98" style="stroke: none; stroke-width: 0; stroke-dasharray: none; stroke-linecap: butt; stroke-linejoin: miter; stroke-miterlimit: 4; fill: #000000; fill-rule: ; opacity: 1;">r</tspan><tspan x="-92.3" y="8.98" style="stroke: none; stroke-width: 0; stroke-dasharray: none; stroke-linecap: butt; stroke-linejoin: miter; stroke-miterlimit: 4; fill: #000000; fill-rule: ; opacity: 1;">i</tspan><tspan x="-81.52" y="8.98" style="stroke: none; stroke-width: 0; stroke-dasharray: none; stroke-linecap: butt; stroke-linejoin: miter; stroke-miterlimit: 4; fill: #000000; fill-rule: ; opacity: 1;">m</tspan><tspan x="-47.42" y="8.98" style="stroke: none; stroke-width: 0; stroke-dasharray: none; stroke-linecap: butt; stroke-linejoin: miter; stroke-miterlimit: 4; fill: #000000; fill-rule: ; opacity: 1;">e</tspan><tspan x="-24.16" y="8.98" style="stroke: none; stroke-width: 0; stroke-dasharray: none; stroke-linecap: butt; stroke-linejoin: miter; stroke-miterlimit: 4; fill: #000000; fill-rule: ; opacity: 1;"> </tspan><tspan x="-12.17" y="8.98" style="stroke: none; stroke-width: 0; stroke-dasharray: none; stroke-linecap: butt; stroke-linejoin: miter; stroke-miterlimit: 4; fill: #000000; fill-rule: ; opacity: 1;">C</tspan><tspan x="14.9" y="8.98" style="stroke: none; stroke-width: 0; stroke-dasharray: none; stroke-linecap: butt; stroke-linejoin: miter; stroke-miterlimit: 4; fill: #000000; fill-rule: ; opacity: 1;">i</tspan><tspan x="25.68" y="8.98" style="stroke: none; stroke-width: 0; stroke-dasharray: none; stroke-linecap: butt; stroke-linejoin: miter; stroke-miterlimit: 4; fill: #000000; fill-rule: ; opacity: 1;">n</tspan><tspan x="55.2" y="8.98" style="stroke: none; stroke-width: 0; stroke-dasharray: none; stroke-linecap: butt; stroke-linejoin: miter; stroke-miterlimit: 4; fill: #000000; fill-rule: ; opacity: 1;">e</tspan><tspan x="78.46" y="8.98" style="stroke: none; stroke-width: 0; stroke-dasharray: none; stroke-linecap: butt; stroke-linejoin: miter; stroke-miterlimit: 4; fill: #000000; fill-rule: ; opacity: 1;">m</tspan><tspan x="112.56" y="8.98" style="stroke: none; stroke-width: 0; stroke-dasharray: none; stroke-linecap: butt; stroke-linejoin: miter; stroke-miterlimit: 4; fill: #000000; fill-rule: ; opacity: 1;">a</tspan></text>
 </g>
</svg>